<svg width="20" height="22" viewBox="0 0 20 22" fill="none" xmlns="http://www.w3.org/2000/svg">
<path fill-rule="evenodd" clip-rule="evenodd" d="M6.50205 5.25C4.12134 5.25 2.10836 7.01239 1.79372 9.37222L0.860387 16.3722C0.480714 19.2198 2.69597 21.75 5.56872 21.75H14.4313C17.304 21.75 19.5193 19.2198 19.1396 16.3722L18.2063 9.37222C17.8916 7.01239 15.8786 5.25 13.4979 5.25H6.50205ZM5.25006 5C5.25006 2.37665 7.37671 0.25 10.0001 0.25C12.6234 0.25 14.7501 2.37665 14.7501 5V8C14.7501 8.41421 14.4143 8.75 14.0001 8.75C13.5858 8.75 13.2501 8.41421 13.2501 8V5C13.2501 3.20507 11.795 1.75 10.0001 1.75C8.20514 1.75 6.75006 3.20507 6.75006 5V8C6.75006 8.41421 6.41427 8.75 6.00006 8.75C5.58585 8.75 5.25006 8.41421 5.25006 8V5ZM10.0304 16.5303C9.7375 16.8232 9.26262 16.8232 8.96973 16.5303L6.96973 14.5303C6.67684 14.2374 6.67684 13.7626 6.96973 13.4697C7.26262 13.1768 7.7375 13.1768 8.03039 13.4697L9.50006 14.9393L12.9697 11.4697C13.2626 11.1768 13.7375 11.1768 14.0304 11.4697C14.3233 11.7626 14.3233 12.2374 14.0304 12.5303L10.0304 16.5303Z" fill="white"/>
</svg>
