<svg width="34" height="34" viewBox="0 0 34 34" fill="none" xmlns="http://www.w3.org/2000/svg">
<path fill-rule="evenodd" clip-rule="evenodd" d="M9.5 0.875C4.73654 0.875 0.875 4.73654 0.875 9.5V24.5C0.875 29.2635 4.73654 33.125 9.5 33.125H24.5C29.2635 33.125 33.125 29.2635 33.125 24.5V9.5C33.125 4.73654 29.2635 0.875 24.5 0.875H9.5ZM20.7127 13.288C21.0055 13.5809 21.0055 14.0558 20.7127 14.3487L18.061 17.0004L20.7127 19.652C21.0055 19.9449 21.0055 20.4198 20.7127 20.7127C20.4198 21.0056 19.9449 21.0056 19.652 20.7127L17.0003 18.061L14.3487 20.7127C14.0558 21.0055 13.5809 21.0055 13.288 20.7127C12.9951 20.4198 12.9951 19.9449 13.288 19.652L15.9397 17.0004L13.288 14.3487C12.9951 14.0559 12.9951 13.581 13.288 13.2881C13.5809 12.9952 14.0558 12.9952 14.3487 13.2881L17.0003 15.9397L19.652 13.288C19.9449 12.9951 20.4198 12.9951 20.7127 13.288Z" fill="#0F172A"/>
</svg>
