<svg width="14" height="18" viewBox="0 0 14 18" fill="none" xmlns="http://www.w3.org/2000/svg">
<path fill-rule="evenodd" clip-rule="evenodd" d="M2.34769 3.375C0.659182 3.375 -0.304654 5.30267 0.708452 6.65348C1.14085 7.23001 1.37459 7.93123 1.37459 8.6519V14C1.37459 16.1861 3.1468 17.9583 5.33293 17.9583H8.66626C10.8524 17.9583 12.6246 16.1861 12.6246 14V8.6519C12.6246 7.93124 12.8583 7.23001 13.2907 6.65348C14.3038 5.30267 13.34 3.375 11.6515 3.375H2.34769ZM8.6661 7.41667C9.08031 7.41667 9.4161 7.75245 9.4161 8.16667V13.1667C9.4161 13.5809 9.08031 13.9167 8.6661 13.9167C8.25188 13.9167 7.9161 13.5809 7.9161 13.1667L7.9161 8.16667C7.9161 7.75245 8.25188 7.41667 8.6661 7.41667ZM6.08276 8.16667C6.08276 7.75245 5.74698 7.41667 5.33276 7.41667C4.91855 7.41667 4.58276 7.75245 4.58276 8.16667L4.58276 13.1667C4.58276 13.5809 4.91855 13.9167 5.33276 13.9167C5.74698 13.9167 6.08276 13.5809 6.08276 13.1667L6.08276 8.16667Z" fill="#FF5200"/>
<path d="M10.3327 4L9.9552 2.86754C9.68297 2.05086 8.91869 1.5 8.05783 1.5H5.94087C5.08001 1.5 4.31573 2.05086 4.0435 2.86754L3.66602 4" stroke="#FF5200" stroke-width="1.5" stroke-linecap="round"/>
</svg>
